<svg width="20" height="20" viewBox="0 0 20 20" fill="none" xmlns="http://www.w3.org/2000/svg">
<path d="M10.0003 12.9165C11.842 12.9165 13.3337 11.4248 13.3337 9.58317V4.99984C13.3337 3.15817 11.842 1.6665 10.0003 1.6665C8.15866 1.6665 6.66699 3.15817 6.66699 4.99984V9.58317C6.66699 11.4248 8.15866 12.9165 10.0003 12.9165Z" stroke="#666666" stroke-width="1.5" stroke-linecap="round" stroke-linejoin="round"/>
<path d="M3.625 8.0415V9.45817C3.625 12.9748 6.48333 15.8332 10 15.8332C13.5167 15.8332 16.375 12.9748 16.375 9.45817V8.0415" stroke="#666666" stroke-width="1.5" stroke-linecap="round" stroke-linejoin="round"/>
<path d="M8.8418 5.35811C9.5918 5.08311 10.4085 5.08311 11.1585 5.35811" stroke="#666666" stroke-width="1.5" stroke-linecap="round" stroke-linejoin="round"/>
<path d="M9.33301 7.1251C9.77467 7.00843 10.233 7.00843 10.6747 7.1251" stroke="#666666" stroke-width="1.5" stroke-linecap="round" stroke-linejoin="round"/>
<path d="M10 15.8335V18.3335" stroke="#666666" stroke-width="1.5" stroke-linecap="round" stroke-linejoin="round"/>
</svg>
